<svg xmlns="http://www.w3.org/2000/svg" width="38.5" height="32.689" viewBox="0 0 38.5 32.689">
  <path id="Tracé_43" data-name="Tracé 43" d="M38.5,27.683a6.436,6.436,0,0,0-4.933-6.256l-4.752-1.083L32.6,8.794h3.91a.632.632,0,0,0,.541-.3L38.44,5.786a.666.666,0,0,0-.241-.842.531.531,0,0,0-.782.241L36.154,7.591H27.371a.632.632,0,0,0-.541.3l-1.384,2.587a.619.619,0,0,0,1.083.6l1.263-2.286H31.4l-3.73,11.249c-17.265-3.97-16.723-4.03-18.468-4.091L7.1,12.343h3.73A1.464,1.464,0,0,0,12.272,10.9V8.734A1.413,1.413,0,0,0,10.828,7.35H1.444A1.413,1.413,0,0,0,0,8.734v2.226A1.464,1.464,0,0,0,1.444,12.4H5.715l2.166,3.73A9.031,9.031,0,0,0,5.715,33.458L4.091,36.345H3.008a.6.6,0,0,0,0,1.2H6.5a.6.6,0,0,0,0-1.2H5.414L6.8,33.819a9.031,9.031,0,0,0,2.226.3h22.8l1.263,2.226H32a.6.6,0,0,0,0,1.2h3.489a.6.6,0,0,0,0-1.2H34.409l-1.323-2.286A6.565,6.565,0,0,0,38.5,27.683ZM1.2,10.959V8.794a.22.22,0,0,1,.241-.241h9.384a.259.259,0,0,1,.241.241v2.166a.259.259,0,0,1-.241.241H1.444C1.323,11.14,1.2,11.08,1.2,10.959Zm0,14.077a7.8,7.8,0,0,1,7.82-7.82c1.624,0,.3-.06,24.243,5.414a5.209,5.209,0,0,1,4.03,5.053,5.135,5.135,0,0,1-5.173,5.173H9.084A7.856,7.856,0,0,1,1.2,25.036ZM13.415,30.27H11.971l-1.323-2.226a3.823,3.823,0,0,0,1.444-3.008,3.877,3.877,0,0,0-3.85-3.85,3.838,3.838,0,0,0-3.85,3.85,3.877,3.877,0,0,0,3.85,3.85,3.237,3.237,0,0,0,1.323-.241l.962,1.624h-1.2a.6.6,0,0,0,0,1.2h4.03a.568.568,0,0,0,.6-.6A.555.555,0,0,0,13.415,30.27ZM8.241,27.623a2.647,2.647,0,1,1,2.647-2.647,2.554,2.554,0,0,1-.9,1.925l-1.2-2.045a.609.609,0,1,0-1.023.662l1.2,1.985A1.526,1.526,0,0,1,8.241,27.623Z" transform="translate(0 -4.859)" fill="#09556f"/>
</svg>
