<svg id="Groupe_136" data-name="Groupe 136" xmlns="http://www.w3.org/2000/svg" xmlns:xlink="http://www.w3.org/1999/xlink" width="25.171" height="25.173" viewBox="0 0 25.171 25.173">
  <defs>
    <clipPath id="clip-path">
      <rect id="Rectangle_170" data-name="Rectangle 170" width="25.171" height="25.173" fill="#00b1b7"/>
    </clipPath>
  </defs>
  <g id="Groupe_135" data-name="Groupe 135" clip-path="url(#clip-path)">
    <path id="Tracé_3349" data-name="Tracé 3349" d="M0,5.412a8.146,8.146,0,0,1,.4-1.22A3.82,3.82,0,0,1,3.895,1.974c.409-.013.819,0,1.267,0,0-.339,0-.671,0-1A.98.98,0,0,1,5.988.012.963.963,0,0,1,7.074.688a2.488,2.488,0,0,1,.051.582c.008.221,0,.442,0,.682h4.426c0-.343-.01-.692,0-1.04a.982.982,0,0,1,1.958,0c.012.262,0,.524,0,.786,0,.081,0,.162,0,.26h4.474V1.494c0-1.049.293-1.491.989-1.488s.977.444.977,1.5v.465c.409,0,.8.009,1.19,0a3.933,3.933,0,0,1,3.934,3.115,3.881,3.881,0,0,1,.083.753q.01,2.814,0,5.628A.983.983,0,1,1,23.2,11.46q0-2.7,0-5.406a2.116,2.116,0,0,0-.4-1.313,1.968,1.968,0,0,0-1.561-.8c-.416-.019-.834,0-1.288,0,0,.358.01.707,0,1.055a.982.982,0,0,1-1.959-.016c-.008-.254,0-.508,0-.762,0-.081,0-.162,0-.261H13.518c0,.308,0,.616,0,.924a.984.984,0,1,1-1.965-.007c0-.3,0-.6,0-.92H7.127c0,.317,0,.626,0,.935a.983.983,0,1,1-1.965,0c0-.309,0-.618,0-.984a11.517,11.517,0,0,0-1.7.118A1.917,1.917,0,0,0,1.967,6.036q0,2.617,0,5.234,0,4.9,0,9.805a1.93,1.93,0,0,0,1.12,1.912A2.532,2.532,0,0,0,4.1,23.2c2.449.017,4.9.008,7.348.011a.94.94,0,0,1,.907.6.955.955,0,0,1-.2,1.066,3.006,3.006,0,0,1-.462.3H3.441a.484.484,0,0,0-.108-.047A3.811,3.811,0,0,1,.423,23,8.79,8.79,0,0,1,0,21.732V5.412" transform="translate(0 0)" fill="#00b1b7"/>
    <path id="Tracé_3350" data-name="Tracé 3350" d="M220.62,227.092c-.268-.06-.538-.107-.8-.181a5.844,5.844,0,0,1-4.383-4.555,5.909,5.909,0,0,1,3.158-6.521,5.7,5.7,0,0,1,6.394.7,5.587,5.587,0,0,1,2.124,5.582A5.75,5.75,0,0,1,223.1,226.8a9.377,9.377,0,0,1-1.046.245c-.053.012-.1.034-.155.051Zm4.619-5.96a3.98,3.98,0,1,0-3.981,3.993,4.009,4.009,0,0,0,3.981-3.993" transform="translate(-202.039 -201.919)" fill="#00b1b7"/>
    <path id="Tracé_3351" data-name="Tracé 3351" d="M84.824,153.756a.983.983,0,1,1,.987-.972.973.973,0,0,1-.987.972" transform="translate(-78.684 -142.446)" fill="#00b1b7"/>
    <path id="Tracé_3352" data-name="Tracé 3352" d="M154.285,153.756a.983.983,0,1,1,.99-.969.973.973,0,0,1-.99.969" transform="translate(-143.871 -142.446)" fill="#00b1b7"/>
    <path id="Tracé_3353" data-name="Tracé 3353" d="M223.757,151.792a.983.983,0,1,1-.982.977.973.973,0,0,1,.982-.977" transform="translate(-209.06 -142.447)" fill="#00b1b7"/>
    <path id="Tracé_3354" data-name="Tracé 3354" d="M294.2,152.778a.983.983,0,1,1-.972-.987.973.973,0,0,1,.972.987" transform="translate(-274.246 -142.446)" fill="#00b1b7"/>
    <path id="Tracé_3355" data-name="Tracé 3355" d="M84.822,221.256a.983.983,0,1,1-.976.983.973.973,0,0,1,.976-.983" transform="translate(-78.684 -207.634)" fill="#00b1b7"/>
    <path id="Tracé_3356" data-name="Tracé 3356" d="M154.291,221.256a.983.983,0,1,1-.981.978.973.973,0,0,1,.981-.978" transform="translate(-143.871 -207.634)" fill="#00b1b7"/>
    <path id="Tracé_3357" data-name="Tracé 3357" d="M84.822,290.721a.983.983,0,1,1-.976.983.973.973,0,0,1,.976-.983" transform="translate(-78.684 -272.822)" fill="#00b1b7"/>
    <path id="Tracé_3358" data-name="Tracé 3358" d="M154.293,292.686a.983.983,0,1,1,.982-.977.973.973,0,0,1-.982.977" transform="translate(-143.871 -272.822)" fill="#00b1b7"/>
    <path id="Tracé_3359" data-name="Tracé 3359" d="M298.152,265.59c.184,0,.331,0,.477,0a.982.982,0,0,1-.008,1.962q-.736.01-1.473,0a.962.962,0,0,1-.96-.973q-.008-1.019,0-2.038a.981.981,0,0,1,1.963-.008c.006.342,0,.684,0,1.055" transform="translate(-277.949 -247.347)" fill="#00b1b7"/>
  </g>
</svg>
