<svg xmlns="http://www.w3.org/2000/svg" width="121.933" height="109.961" viewBox="0 0 121.933 109.961">
  <path id="Tracé_3313" data-name="Tracé 3313" d="M60.319,96.255V50.446a1.833,1.833,0,0,1,1.833-1.832h58.633a1.833,1.833,0,0,1,1.833,1.832V66.936a1.832,1.832,0,1,1-3.665,0V52.279H63.983V96.254h49.472a1.832,1.832,0,0,1,0,3.664h-62.3A9.161,9.161,0,0,1,42,90.757V38.267a9.161,9.161,0,0,1,4.712-8.008l42-23.334a9.163,9.163,0,0,1,9.163.153l38.62,23.171a9.162,9.162,0,0,1,4.448,7.857V55.942a1.832,1.832,0,1,1-3.665,0V38.105a5.5,5.5,0,0,0-2.669-4.714L95.988,10.22a5.5,5.5,0,0,0-5.5-.091l-42,23.334a5.5,5.5,0,0,0-2.827,4.805v52.49a5.5,5.5,0,0,0,5.5,5.5Zm87.209,17.964a1.834,1.834,0,0,1-2.18,0c-.133-.1-.367-.278-.687-.535-.524-.421-1.105-.91-1.729-1.464a52.415,52.415,0,0,1-5.222-5.333c-4.834-5.715-7.762-11.77-7.762-17.962a16.491,16.491,0,0,1,32.982,0c0,6.192-2.928,12.247-7.762,17.962a52.367,52.367,0,0,1-5.222,5.333c-.624.554-1.206,1.043-1.729,1.464-.32.257-.554.436-.687.535Zm-.015-4.741a48.751,48.751,0,0,0,4.856-4.958c4.327-5.116,6.9-10.427,6.9-15.6a12.826,12.826,0,0,0-25.652,0c0,5.168,2.568,10.479,6.9,15.6a48.781,48.781,0,0,0,4.856,4.958c.377.335.737.644,1.074.925.337-.281.7-.59,1.074-.925Zm-1.074-13.223a7.329,7.329,0,1,1,7.329-7.33A7.329,7.329,0,0,1,146.438,96.255Zm0-3.665a3.664,3.664,0,1,0-3.665-3.665A3.665,3.665,0,0,0,146.438,92.59ZM82.307,33.955a1.832,1.832,0,1,1,0-3.664H100.63a1.832,1.832,0,1,1,0,3.664Z" transform="translate(-41.496 -5.172)" fill="#00b1b7" stroke="#00b1b7" stroke-width="1"/>
</svg>
