<svg xmlns="http://www.w3.org/2000/svg" width="118.415" height="118.704" viewBox="0 0 118.415 118.704">
  <path id="Tracé_3366" data-name="Tracé 3366" d="M190.486,87.379a5.91,5.91,0,0,0-4.907-9.177h-.456v-.4a29.488,29.488,0,0,1,1.587-9.049c1.058-3.284,2.171-9.578,1.387-20.87V26.718a5.9,5.9,0,0,0-5.893-5.893,5.8,5.8,0,0,0-3.229.967V21.52a5.9,5.9,0,0,0-9.14-4.926V14.46a5.9,5.9,0,0,0-11.749-.748,5.9,5.9,0,0,0-9.158,4.907v.73h-.492a28.607,28.607,0,0,1-9.067-1.587c-3.3-1.058-9.633-2.153-20.87-1.368H97.316a5.875,5.875,0,0,0-4.944,9.1h-.254a5.91,5.91,0,0,0-4.962,9.122H85.039a5.909,5.909,0,0,0-.73,11.768,5.945,5.945,0,0,0-.985,3.284A5.882,5.882,0,0,0,89.2,55.545h.475v.511a28.96,28.96,0,0,1-1.587,9.067c-1.058,3.266-2.171,9.56-1.387,20.852v21.18a5.917,5.917,0,0,0,5.911,5.893,5.8,5.8,0,0,0,3.229-.967v.255a5.9,5.9,0,0,0,5.893,5.893,5.8,5.8,0,0,0,3.229-.967v2.117a5.9,5.9,0,0,0,11.749.748,5.9,5.9,0,0,0,9.158-4.907V114.4h.492a28.982,28.982,0,0,1,9.049,1.569c2.518.821,6.786,1.66,13.664,1.66,2.153,0,4.543-.073,7.225-.274h21.163a5.9,5.9,0,0,0,5.893-5.893,5.8,5.8,0,0,0-.967-3.229h.255a5.9,5.9,0,0,0,5.893-5.893,5.8,5.8,0,0,0-.967-3.229h2.117a5.893,5.893,0,0,0,.8-11.732ZM151.554,18.6a3.229,3.229,0,1,1,6.459,0v19.63a1.332,1.332,0,0,0,2.664,0l0-19.63V14.459a3.229,3.229,0,1,1,6.459,0V38.248a1.332,1.332,0,0,0,2.664,0V21.482a3.238,3.238,0,0,1,6.477.037V38.267a1.332,1.332,0,0,0,2.664,0V26.718a3.229,3.229,0,1,1,6.459,0V47.972c.748,10.964-.274,16.912-1.259,19.958a31.415,31.415,0,0,0-1.715,9.87v.4H156.08c-.475-7.936-4.816-11.639-5-11.8-.055-.036-.109-.092-.164-.128-3.029-1.788-6.385-6.257-9.761-12.9a16.462,16.462,0,0,1,7.736-2.3.88.88,0,0,0,.073.2,1.34,1.34,0,0,0,2.626-.383V18.6ZM135.719,78.658c-3.43-6.641-6.841-11.074-10.162-13.172,6.841-3.539,11.384-7.024,13.463-10.38,3.412,6.623,6.823,11.074,10.107,13.19C142.341,71.8,137.817,75.282,135.719,78.658ZM85.986,49.67A3.22,3.22,0,0,1,89.2,46.44h19.667a1.332,1.332,0,1,0,0-2.664H85.037a3.23,3.23,0,0,1,0-6.459h6.987c.018,0,.055.018.073.018h16.748a1.332,1.332,0,0,0,0-2.664H92.189c-.018,0-.055-.018-.073-.018a3.22,3.22,0,1,1,0-6.44h16.748a1.332,1.332,0,1,0,0-2.664H97.315a3.22,3.22,0,1,1,0-6.44h21.254c10.909-.766,16.894.255,19.958,1.241a31.618,31.618,0,0,0,9.888,1.715h.475V48.428c-8.009.438-11.731,4.8-11.877,4.981a.646.646,0,0,0-.128.182c-1.788,3.046-6.294,6.44-13.062,9.87a14.042,14.042,0,0,1-.967-1.77c-.073-.164-.146-.31-.219-.492-.092-.219-.182-.438-.255-.675-.146-.4-.274-.821-.4-1.277-.055-.182-.092-.4-.146-.6-.128-.511-.219-1.058-.31-1.642-.036-.2-.036-.42-.055-.638s-.018-.456-.036-.675c.164-.055.328-.109.492-.146a1.343,1.343,0,0,0,.931-1.477,1.319,1.319,0,0,0-1.314-1.131l-32.344,0a3.312,3.312,0,0,1-3.211-3.266Zm37.236,65.585a3.229,3.229,0,0,1-6.459,0V95.589a1.332,1.332,0,1,0-2.664,0V119.4a3.229,3.229,0,1,1-6.459,0V95.589a1.332,1.332,0,1,0-2.664,0v16.748a3.229,3.229,0,0,1-6.459,0V95.589a1.332,1.332,0,1,0-2.664,0v11.585a3.238,3.238,0,0,1-6.477-.018V85.883c-.766-10.964.274-16.894,1.259-19.94a31.6,31.6,0,0,0,1.734-9.906v-.456h26.343c.018.219.055.383.073.6.055.621.128,1.222.219,1.788.055.274.092.548.146.8.128.621.274,1.186.438,1.734.073.219.128.42.2.638.164.475.328.912.511,1.314q.164.383.328.711c.128.237.237.456.365.675a13.76,13.76,0,0,0,2.718,3.594.646.646,0,0,0,.182.128c3.01,1.77,6.349,6.184,9.706,12.789a16.237,16.237,0,0,1-7.717,2.3c0-.036-.018-.055-.036-.092a1.336,1.336,0,0,0-2.627.347Zm66.5-18.79H165.93a1.332,1.332,0,0,0,0,2.664h16.729a3.229,3.229,0,1,1,0,6.459H165.911a1.332,1.332,0,0,0,0,2.664h11.566a3.23,3.23,0,0,1-.018,6.459H156.205c-10.909.766-16.875-.255-19.958-1.259a31.568,31.568,0,0,0-9.888-1.7h-.475l0-26.365c7.991-.456,11.712-4.816,11.877-5.017a.842.842,0,0,0,.109-.164c1.824-3.065,6.33-6.44,13.062-9.833a16.425,16.425,0,0,1,2.408,7.7c-.164.055-.31.109-.475.164a1.34,1.34,0,0,0,.383,2.626h1.167a1.077,1.077,0,0,0,.347.073h28.988a1.059,1.059,0,0,0,.347-.073h1.441a3.238,3.238,0,0,1,.018,6.477H165.911a1.332,1.332,0,0,0,0,2.664h23.807a3.229,3.229,0,0,1,0,6.458Z" transform="translate(-78.165 -7.568)" fill="#00b1b7" stroke="#00b1b7" stroke-width="2"/>
</svg>
