<svg xmlns="http://www.w3.org/2000/svg" width="179.652" height="115.183" viewBox="0 0 179.652 115.183">
  <g id="Groupe_140" data-name="Groupe 140" transform="translate(-500.117 -1860.399)">
    <path id="Tracé_3361" data-name="Tracé 3361" d="M186.139,314.877a2.894,2.894,0,0,0-3.981.973l-.133.221a2.9,2.9,0,1,0,4.954,3.007l.133-.221a2.9,2.9,0,0,0-.973-3.98Z" transform="translate(350.238 1581.025)" fill="#00b1b7"/>
    <path id="Tracé_3362" data-name="Tracé 3362" d="M268.2,259.956l-15.416-25.562a2.9,2.9,0,1,0-4.962,2.995l15.41,25.548a1.983,1.983,0,0,1-.647,2.7l-9.843,5.926a1.959,1.959,0,0,1-2.685-.677L224.88,229.131l-1.019-1.675a1.964,1.964,0,0,1,.656-2.682l9.843-5.926a1.953,1.953,0,0,1,2.679.668l4.83,8.019a2.9,2.9,0,0,0,4.966-2.99l-4.825-8.008a7.757,7.757,0,0,0-10.63-2.659l-9.868,5.941a7.763,7.763,0,0,0-3.132,9.542l-2.858,1.379a6.313,6.313,0,0,1-4.945.22L190.21,223.29a23.735,23.735,0,0,0-13.7-.926l-6.926,1.586c-.757.174-1.493.4-2.228.625H161.3a36.7,36.7,0,0,0-10.4,1.527l-6.6,1.964H140.96a7.776,7.776,0,0,0-3.54-8.255l-9.862-5.937a7.752,7.752,0,0,0-10.613,2.652l-26.2,43.44A7.807,7.807,0,0,0,93.376,270.6l9.862,5.937a7.752,7.752,0,0,0,10.613-2.651l.652-1.085,8.927,5.6,7.7,12.276a9.863,9.863,0,0,0,2.1,13.124l.53.426a9.876,9.876,0,0,0,5.121,2.1,10.705,10.705,0,0,0,13.391,9.119,10.7,10.7,0,0,0,13.271,7.066,10,10,0,0,0,8.891,5.443,10.213,10.213,0,0,0,1.109-.061,9.981,9.981,0,0,0,6.756-3.709l1.776-2.2,5.445,2.9a13.541,13.541,0,0,0,17.512-4.3,10.453,10.453,0,0,0,11.968-5.189,10.246,10.246,0,0,0,.95-2.683,11.092,11.092,0,0,0,2.046.212,11.253,11.253,0,0,0,11.236-11.884,11.322,11.322,0,0,0,7.419-5.466c4.253-7.631-1.813-13.12-3.84-14.951l-.12-.105a13.389,13.389,0,0,1,7.916-7.452l.492.81a7.758,7.758,0,0,0,10.63,2.66l9.868-5.941a7.812,7.812,0,0,0,2.612-10.64ZM136.856,299.287a4.158,4.158,0,0,1-.636-5.853l6.344-7.888a4.161,4.161,0,0,1,5.852-.635l.53.426a4.158,4.158,0,0,1,.636,5.853l-6.342,7.888a4.167,4.167,0,0,1-5.853.635Zm9.6,9.61a5.064,5.064,0,0,1-1.881-3.6,9.9,9.9,0,0,0,3.182-2.585l6.344-7.888a9.863,9.863,0,0,0,2.034-4.662,5.023,5.023,0,0,1,4.682.842,5.167,5.167,0,0,1,1.9,3.969,5.856,5.856,0,0,1-.132,1.175,4.847,4.847,0,0,1-.982,1.964l-8.039,10a4.073,4.073,0,0,1-.734.726,5.025,5.025,0,0,1-6.369.062ZM159.4,316.04a4.974,4.974,0,0,1-1.841-3.728c.166-.181.33-.346.5-.558l8.043-10a10.628,10.628,0,0,0,1.643-2.827,4.984,4.984,0,0,1,4.726.852,5.072,5.072,0,0,1,1.9,3.943v.171a5.046,5.046,0,0,1-1.113,2.991l-6.765,8.392a5.062,5.062,0,0,1-7.091.767Zm18.368,4.523a4.251,4.251,0,0,1-5.981.664,4.168,4.168,0,0,1-1.276-1.776c.168-.182.348-.357.5-.548l6.772-8.4a10.824,10.824,0,0,0,2.084-4.361,4.25,4.25,0,0,1,4,6.852Zm14.462-.8-4.464-2.376.613-.761a10.088,10.088,0,0,0,2.05-4.539l11.24,5.966a7.769,7.769,0,0,1-9.439,1.71Zm43.347-27.023a5.488,5.488,0,0,1-5.524,2.739,5.088,5.088,0,0,1-1.9-.631L204.08,281.4a2.9,2.9,0,0,0-2.826,5.061L225.309,299.9a10.548,10.548,0,0,0,2.058.889,5.485,5.485,0,0,1-.555,3.435,5.435,5.435,0,0,1-7.372,2.255l-24.369-12.9a2.9,2.9,0,0,0-2.713,5.122l22.056,11.676a4.534,4.534,0,0,1-.532,2.282,4.709,4.709,0,0,1-6.364,1.942l-18.659-9.9a9.866,9.866,0,0,0-9.236-4.348,10.928,10.928,0,0,0-3.5-5.077,10.775,10.775,0,0,0-7.819-2.35,10.77,10.77,0,0,0-12.969-8.53,9.888,9.888,0,0,0-2.751-3.569l-.53-.426a9.961,9.961,0,0,0-14,1.52l-3.133,3.9-6.924-11.046a2.881,2.881,0,0,0-.915-.915l-9.582-6.013,3.315-5.509a2.9,2.9,0,0,0-4.969-2.985L108.883,270.9a1.95,1.95,0,0,1-2.664.663l-9.838-5.922a1.985,1.985,0,0,1-.67-2.7L121.917,219.5a1.944,1.944,0,0,1,2.664-.663l9.838,5.922a1.969,1.969,0,0,1,.671,2.691l-8.555,14.174a2.9,2.9,0,0,0,4.962,2.994l6.5-10.765h6.725a2.91,2.91,0,0,0,.826-.12l7-2.082a31.746,31.746,0,0,1,3.376-.782,31.722,31.722,0,0,0-6.015,7.03L143.04,248.8a7.862,7.862,0,0,0,2.336,10.724,16.292,16.292,0,0,0,18.409-.326l14.609-10.31,32,16.256,22.555,19.8c4.282,3.877,3.686,5.9,2.631,7.8Zm-3.435-16.211-18.206-15.985a2.825,2.825,0,0,0-.6-.407l-33.766-17.155a2.906,2.906,0,0,0-3.1.156L160.439,254.46a10.529,10.529,0,0,1-11.892.212,2.039,2.039,0,0,1-.608-2.782l6.866-10.9a25.644,25.644,0,0,1,16.075-11.4l6.926-1.586a17.935,17.935,0,0,1,10.36.7l20.366,7.67a12.142,12.142,0,0,0,9.505-.423l3.238-1.562,20.29,33.652a19.033,19.033,0,0,0-9.422,8.484Z" transform="translate(410.469 1647.62)" fill="#00b1b7"/>
  </g>
</svg>
