<svg xmlns="http://www.w3.org/2000/svg" width="44.247" height="31.802" viewBox="0 0 44.247 31.802">
  <path id="Tracé_44" data-name="Tracé 44" d="M38.716,34.358c-2.765,0-2.765-1.383-5.531-1.383a5.877,5.877,0,0,0-1.383.149V20.531a4.148,4.148,0,1,1,8.3,0,.691.691,0,0,0,1.383,0,5.531,5.531,0,1,0-11.062,0V23.3H16.592V20.531a4.148,4.148,0,1,1,8.3,0,.691.691,0,0,0,1.383,0,5.531,5.531,0,1,0-11.062,0V34.209c-1.493-.356-1.943-1.234-4.148-1.234-2.765,0-2.765,1.383-5.531,1.383S2.765,32.975,0,32.975v1.383c2.765,0,2.765,1.383,5.531,1.383s2.765-1.383,5.531-1.383,2.765,1.383,5.531,1.383,2.765-1.383,5.531-1.383,2.765,1.383,5.531,1.383,2.765-1.383,5.531-1.383,2.765,1.383,5.531,1.383,2.765-1.383,5.531-1.383V32.975C41.481,32.975,41.481,34.358,38.716,34.358ZM16.592,24.679H30.42v4.148H16.592Zm5.531,8.3c-2.765,0-2.765,1.383-5.531,1.383V30.21H30.42v3.457a5.355,5.355,0,0,1-2.765.691C24.889,34.358,24.889,32.975,22.123,32.975ZM0,44.037c2.765,0,2.765,1.383,5.531,1.383s2.765-1.383,5.531-1.383,2.765,1.383,5.531,1.383,2.765-1.383,5.531-1.383,2.765,1.383,5.531,1.383,2.765-1.383,5.531-1.383,2.765,1.383,5.531,1.383,2.765-1.383,5.531-1.383V45.42c-2.765,0-2.765,1.383-5.531,1.383S35.95,45.42,33.185,45.42,30.42,46.8,27.654,46.8s-2.765-1.383-5.531-1.383S19.358,46.8,16.592,46.8s-2.765-1.383-5.531-1.383S8.3,46.8,5.531,46.8,2.765,45.42,0,45.42Zm0-5.531c2.765,0,2.765,1.383,5.531,1.383s2.765-1.383,5.531-1.383,2.765,1.383,5.531,1.383,2.765-1.383,5.531-1.383,2.765,1.383,5.531,1.383,2.765-1.383,5.531-1.383,2.765,1.383,5.531,1.383,2.765-1.383,5.531-1.383v1.383c-2.765,0-2.765,1.383-5.531,1.383s-2.765-1.383-5.531-1.383-2.765,1.383-5.531,1.383-2.765-1.383-5.531-1.383-2.765,1.383-5.531,1.383-2.765-1.383-5.531-1.383S8.3,41.271,5.531,41.271,2.765,39.889,0,39.889Z" transform="translate(0 -15)" fill="#09556f" fill-rule="evenodd"/>
</svg>
