<svg xmlns="http://www.w3.org/2000/svg" width="129.946" height="115.712" viewBox="0 0 129.946 115.712">
  <path id="Tracé_3307" data-name="Tracé 3307" d="M14.385,37.735V52.2a4.823,4.823,0,1,0,9.645,0V37.735a4,4,0,0,0,0-.723,16.831,16.831,0,1,0-9.308,0A3.858,3.858,0,0,0,14.385,37.735ZM11.974,20.856a7.234,7.234,0,1,1-.048,0Zm120.516,43.4a16.831,16.831,0,1,0-21.653,16.156,3.856,3.856,0,0,0,0,.723V95.606a4.823,4.823,0,0,0,9.645,0V81.138a4,4,0,0,0,0-.723A16.927,16.927,0,0,0,132.49,64.259Zm-16.831,7.234a7.234,7.234,0,1,1,7.234-7.234A7.234,7.234,0,0,1,115.659,71.493Zm0,38.581H86.724a9.645,9.645,0,0,1-9.645-9.645V85.96a19.29,19.29,0,0,0-19.29-19.29H19.208a4.823,4.823,0,0,0,0,9.645H57.789a9.645,9.645,0,0,1,9.645,9.645v14.468a19.29,19.29,0,0,0,19.29,19.29h28.935a4.823,4.823,0,1,0,0-9.645Z" transform="translate(-2.545 -4.006)" fill="#00b1b7"/>
</svg>
