<svg xmlns="http://www.w3.org/2000/svg" width="92.132" height="123.516" viewBox="0 0 92.132 123.516">
  <g id="Groupe_141" data-name="Groupe 141" transform="translate(-614.948 -1687.599)">
    <path id="Tracé_3363" data-name="Tracé 3363" d="M202.049,53.594A28.267,28.267,0,1,0,238.8,69.319a28.3,28.3,0,0,0-36.754-15.725Zm19.645,49.027A24.552,24.552,0,1,1,235.35,70.7a24.585,24.585,0,0,1-13.656,31.923Zm7.2-32.367-9.125-.859-3.639-8.412a3.9,3.9,0,0,0-7.155,0l-3.639,8.412-9.123.859a3.9,3.9,0,0,0-2.211,6.8l6.876,6.06-2,8.944a3.9,3.9,0,0,0,5.788,4.2l7.888-4.67,7.888,4.667a3.9,3.9,0,0,0,5.788-4.206l-2-8.944,6.878-6.06a3.893,3.893,0,0,0-2.211-6.8Zm-.245,4.011-8.526,7.513,2.482,11.087a.184.184,0,0,1-.07.188.18.18,0,0,1-.2.01l-9.779-5.788-9.874,5.814a.178.178,0,0,1-.107-.036.176.176,0,0,1-.068-.184L205,81.778l-8.528-7.513a.177.177,0,0,1-.052-.187.182.182,0,0,1,.155-.127l11.314-1.066L212.4,62.454a.181.181,0,0,1,.331,0l4.511,10.432,11.314,1.066a.179.179,0,0,1,.154.12.182.182,0,0,1-.053.193ZM252.8,80.577c.047-2.478,1.379-5.287,2.667-8.005,1.777-3.745,3.614-7.617,2.318-10.863s-5.3-4.775-9.178-6.257c-2.809-1.075-5.712-2.185-7.459-3.946-1.8-1.819-2.858-4.812-3.877-7.7-1.3-3.7-2.649-7.52-5.551-8.763s-6.6.429-10.2,2.055c-2.728,1.229-5.545,2.5-8.08,2.5h-.134c-2.479-.047-5.287-1.379-8.017-2.673-3.741-1.773-7.612-3.609-10.853-2.31s-4.775,5.3-6.257,9.176c-1.074,2.806-2.183,5.709-3.946,7.457-1.822,1.8-4.813,2.858-7.706,3.877-3.7,1.3-7.522,2.651-8.763,5.549s.425,6.6,2.038,10.171c1.262,2.793,2.565,5.682,2.515,8.249-.046,2.476-1.377,5.283-2.667,8.005-1.779,3.745-3.617,7.617-2.318,10.864s5.3,4.775,9.176,6.256a36.289,36.289,0,0,1,5.472,2.467l-13.828,35.609a1.861,1.861,0,0,0,1.061,2.405l.662.256a1.855,1.855,0,0,0,1.569-.105l17.024-9.4,6.219,18.425a1.856,1.856,0,0,0,1.087,1.137l1.465.569a1.856,1.856,0,0,0,2.4-1.058l12.7-32.706L225.471,155.6a1.856,1.856,0,0,0,2.4,1.058l1.465-.569a1.856,1.856,0,0,0,1.087-1.137l6.219-18.427,17.029,9.4a1.843,1.843,0,0,0,1.57.105l.661-.256a1.857,1.857,0,0,0,1.059-2.4l-14.133-36.395a34.191,34.191,0,0,1,5.758-2.433c3.7-1.3,7.52-2.651,8.762-5.549h0c1.24-2.9-.426-6.6-2.038-10.17-1.259-2.8-2.563-5.686-2.512-8.253Zm-55.446,69.579-6.077-18a1.859,1.859,0,0,0-2.658-1.032l-15.459,8.535,11.768-30.3c.018.025.037.05.055.076.232.342.45.7.656,1.08.046.083.089.167.131.25.181.346.355.7.517,1.062.025.056.053.111.077.167.179.406.348.819.509,1.229l.12.309c.153.4.3.8.44,1.188l.407,1.152c1.3,3.7,2.651,7.52,5.542,8.757a4.07,4.07,0,0,0,.72.216,6.17,6.17,0,0,0,1.922.208c2.343-.118,4.982-1.308,7.54-2.461l.874-.392q.494-.221.995-.436c.108-.047.216-.092.325-.136.235-.1.471-.2.708-.292l.378-.147q.338-.13.675-.249c.126-.044.252-.09.378-.132.243-.081.483-.155.724-.225.083-.024.166-.052.248-.074ZM236.5,132.2a1.857,1.857,0,0,0-2.658,1.034l-6.075,18-11.718-30.172.185.073c.55.216,1.1.452,1.657.7l.265.121c.56.256,1.121.52,1.679.785l1.177.556c.3.139.6.278.912.416l.329.145q.434.19.862.366l.384.151c.23.092.459.176.683.258.167.061.333.118.5.173.245.083.489.157.733.224l.339.1c.32.083.633.15.924.2.115.021.228.041.33.056a9.316,9.316,0,0,0,.986.093c.087,0,.176,0,.25,0h.084a6.647,6.647,0,0,0,1.023-.074l.164-.031c.2-.036.384-.078.561-.126.059-.016.114-.036.171-.055.1-.03.2-.057.289-.09l.212-.053.127-.084c.068-.03.134-.07.2-.1.087-.043.172-.084.258-.132s.2-.118.3-.179c.081-.052.164-.1.244-.158.1-.068.194-.145.29-.221.077-.061.155-.12.231-.184.1-.083.19-.173.284-.264.073-.07.148-.136.219-.211.094-.1.185-.2.278-.307.07-.078.139-.153.208-.235.094-.113.185-.237.277-.358.064-.084.13-.166.192-.253.1-.139.2-.29.293-.44.053-.081.107-.157.16-.24.148-.238.3-.489.437-.751a41.4,41.4,0,0,0,2.195-5.065q.267-.7.543-1.4c.052-.13.1-.259.154-.388.195-.487.4-.97.6-1.441.033-.074.068-.145.1-.219.191-.421.389-.828.6-1.223.044-.083.086-.169.13-.249a14.127,14.127,0,0,1,.739-1.21l.073-.1,12.073,31.09Zm17.438-34.666c-.6,1.4-3.914,2.567-6.581,3.506a37.058,37.058,0,0,0-6.3,2.673l-.212.11c-.073.044-.138.089-.184.123-.312.192-.613.395-.908.607l-.086.059c-.1.073-.209.147-.283.206a11.823,11.823,0,0,0-1.112.964c-2.327,2.307-3.584,5.588-4.8,8.77a39.117,39.117,0,0,1-1.981,4.6c-.178.326-.358.62-.536.885-.058.087-.117.151-.175.231-.12.164-.24.332-.359.469-.073.083-.144.141-.216.213a3.878,3.878,0,0,1-.315.3,2.708,2.708,0,0,1-.234.15,2.509,2.509,0,0,1-.318.19l-.064.025c-.021.009-.049.016-.071.022a2.608,2.608,0,0,1-.336.083l-.074.016a3.249,3.249,0,0,1-.514.03h-.133a5.662,5.662,0,0,1-.6-.057l-.207-.036c-.212-.037-.426-.083-.654-.141l-.271-.077c-.182-.05-.364-.107-.549-.169-.135-.046-.272-.093-.412-.144-.195-.07-.391-.144-.583-.219l-.342-.135c-.256-.105-.514-.215-.784-.332l-.3-.13c-.287-.13-.576-.261-.862-.395l-1.171-.553-1.06-.5-.325-.15c-.253-.117-.508-.234-.763-.348-.15-.067-.3-.132-.447-.2-.211-.093-.423-.184-.635-.272-.173-.073-.346-.142-.52-.211-.19-.076-.379-.148-.57-.218s-.378-.139-.567-.206-.351-.115-.526-.171c-.2-.064-.4-.13-.6-.187-.167-.047-.336-.086-.5-.129-.3-.074-.591-.141-.888-.2-.258-.05-.516-.1-.775-.134h-.013a11.512,11.512,0,0,0-1.306-.1l-.235,0c-3.01,0-5.97,1.207-8.75,2.447l-.885.4c-2.239,1.009-4.553,2.053-6.194,2.136a2.462,2.462,0,0,1-.789-.09l-.246-.058c-1.377-.656-2.528-3.925-3.457-6.558l-.415-1.171c-.967-2.695-2.18-5.751-4.326-7.91a11.831,11.831,0,0,0-.986-.887c-.093-.074-.192-.147-.293-.218l-.13-.094c-.218-.164-.436-.325-.625-.449l-.352-.224a36.769,36.769,0,0,0-6.382-2.931c-2.981-1.14-6.361-2.433-7.056-4.169s.855-5,2.229-7.9c1.455-3.07,2.96-6.244,3.021-9.518.064-3.4-1.416-6.679-2.845-9.847-1.16-2.577-2.607-5.783-2.008-7.181s3.916-2.568,6.581-3.507c3.28-1.155,6.674-2.352,9.087-4.744,2.331-2.313,3.587-5.594,4.8-8.769,1.142-2.981,2.436-6.361,4.169-7.054s5,.853,7.891,2.223c3.071,1.456,6.247,2.965,9.529,3.027,3.427.059,6.663-1.408,9.844-2.843,2.575-1.161,5.779-2.608,7.181-2.011s2.568,3.916,3.507,6.581c1.155,3.28,2.35,6.672,4.744,9.086,2.312,2.328,5.594,3.586,8.769,4.8,2.981,1.142,6.361,2.435,7.056,4.169s-.855,5.005-2.223,7.889c-1.458,3.073-2.966,6.25-3.027,9.526-.067,3.4,1.413,6.681,2.842,9.852,1.153,2.577,2.6,5.782,2,7.182Z" transform="translate(448.453 1653.829)" fill="#00b1b7" stroke="#00b1b7" stroke-width="1"/>
  </g>
</svg>
