<svg xmlns="http://www.w3.org/2000/svg" width="99.416" height="64.199" viewBox="0 0 99.416 64.199">
  <path id="Tracé_3306" data-name="Tracé 3306" d="M13.75,70.538a20.455,20.455,0,0,1-2.876-.144A6.7,6.7,0,0,1,6.76,58.89a14.928,14.928,0,0,0,4.976-11.965A21.514,21.514,0,0,1,1.3,21.038a20.134,20.134,0,0,1,5.091-8.025A21.687,21.687,0,0,1,29.051,7.52,24.247,24.247,0,0,1,45.3,26.935a36.672,36.672,0,0,1-3.538,23.3v.23C32.905,64.383,24.449,70.538,13.75,70.538Zm-1.064-7.219c6.356.316,13.518-1.841,22.78-16.567a29.712,29.712,0,0,0,2.876-18.408,17.257,17.257,0,0,0-11.5-14.007,14.381,14.381,0,0,0-15.273,3.739,13.087,13.087,0,0,0-3.279,5.292,14.381,14.381,0,0,0,8.2,17.833,3.6,3.6,0,0,1,2.186,2.617,21.6,21.6,0,0,1-5.983,19.5ZM38.572,48.564ZM67.506,70.538a20.253,20.253,0,0,1-2.876-.144,6.7,6.7,0,0,1-4.113-11.5,14.928,14.928,0,0,0,4.976-11.965A21.543,21.543,0,0,1,55.052,21.038a20.392,20.392,0,0,1,5-8.025A21.716,21.716,0,0,1,82.779,7.52,24.189,24.189,0,0,1,99.03,26.935a36.672,36.672,0,0,1-3.538,23.3,1.7,1.7,0,0,1,0,.23C86.662,64.383,78.177,70.538,67.506,70.538Zm-1.093-7.219c6.385.316,13.518-1.841,22.809-16.567A29.366,29.366,0,0,0,92.1,28.344a1.036,1.036,0,0,0,0-.288,16.97,16.97,0,0,0-11.5-13.72A14.381,14.381,0,0,0,65.32,18.076a12.713,12.713,0,0,0-3.193,5.292,14.381,14.381,0,0,0,8.2,17.833,3.624,3.624,0,0,1,2.157,2.617,21.543,21.543,0,0,1-6.069,19.5ZM92.3,48.564Z" transform="translate(-0.183 -6.34)" fill="#00b1b7"/>
</svg>
