<svg xmlns="http://www.w3.org/2000/svg" width="24.709" height="30.774" viewBox="0 0 24.709 30.774">
  <g id="Restaurant" transform="translate(-5.189 -3.408)">
    <path id="Tracé_40" data-name="Tracé 40" d="M21.33,33.936a2.526,2.526,0,0,1-2.124-1.184,108.984,108.984,0,0,1-6.617-12.007l-.734-.179a4.725,4.725,0,0,1-3.169-2.875L5.507,9.346a4.7,4.7,0,0,1,.328-4.077l.4-.693a1.639,1.639,0,0,1,1.424-.812h.02a1.649,1.649,0,0,1,1.431.846L23.561,30.253a2.367,2.367,0,0,1,.194,1.882,2.552,2.552,0,0,1-1.184,1.47A2.515,2.515,0,0,1,21.33,33.936ZM7.661,5.032a.377.377,0,0,0-.33.186l-.4.69A3.445,3.445,0,0,0,6.692,8.9l3.181,8.347a3.445,3.445,0,0,0,2.313,2.1l1.015.267a.643.643,0,0,1,.411.338,109.205,109.205,0,0,0,6.663,12.117,1.246,1.246,0,0,0,1.674.435,1.265,1.265,0,0,0,.6-.737,1.111,1.111,0,0,0-.091-.884L8.008,5.235a.37.37,0,0,0-.347-.2Z" transform="translate(0 0.246)" fill="#09556f"/>
    <path id="Tracé_41" data-name="Tracé 41" d="M9.472,34.182a2.435,2.435,0,0,1-1.3-.37,2.5,2.5,0,0,1-.917-3.34c1.448-2.663,3.176-5.548,5-8.351a.635.635,0,1,1,1.064.693c-1.8,2.772-3.516,5.63-4.938,8.259a1.241,1.241,0,0,0,.46,1.656,1.213,1.213,0,0,0,1.661-.372c1.216-1.837,2.5-3.925,3.825-6.215a.634.634,0,0,1,1.1.634c-1.338,2.312-2.635,4.422-3.859,6.272A2.474,2.474,0,0,1,9.472,34.182Zm5.635-14.589a.627.627,0,0,1-.634-.626v-.015a.644.644,0,0,1,.11-.359c.939-1.366,1.742-2.508,2.337-3.352a2.692,2.692,0,0,1-.588-3.431L21.2,3.694a.636.636,0,0,1,1.089.654l-4.87,8.117a1.405,1.405,0,0,0,.494,1.938l.225.139a.634.634,0,0,1,.184.9l-.169.254c-.6.846-1.468,2.078-2.5,3.582A.638.638,0,0,1,15.107,19.593Zm1.977,3.494a.635.635,0,0,1-.558-.933c1.28-2.389,2.425-4.613,3.064-5.946a.634.634,0,0,1,.394-.338.617.617,0,0,1,.507.068l.22.135a1.405,1.405,0,0,0,1.07.169,1.387,1.387,0,0,0,.859-.641l4.87-8.117a.636.636,0,0,1,1.089.654l-4.867,8.109a2.65,2.65,0,0,1-1.64,1.218,2.706,2.706,0,0,1-1.65-.115c-.676,1.365-1.691,3.32-2.8,5.4a.632.632,0,0,1-.56.342Z" transform="translate(1.221 0)" fill="#09556f"/>
    <path id="Tracé_42" data-name="Tracé 42" d="M15.026,11.562a.635.635,0,0,1-.545-.959L18.17,4.451a.634.634,0,0,1,1.089.651l-3.688,6.15a.629.629,0,0,1-.545.309Zm2.1,1.26a.622.622,0,0,1-.325-.091.632.632,0,0,1-.218-.868l3.688-6.152a.634.634,0,1,1,1.087.651l-3.687,6.15A.632.632,0,0,1,17.128,12.822Z" transform="translate(6.36 0.507)" fill="#09556f"/>
  </g>
</svg>
