<svg xmlns="http://www.w3.org/2000/svg" width="96.828" height="107.805" viewBox="0 0 96.828 107.805">
  <g id="Groupe_69" data-name="Groupe 69" transform="translate(-82.9 -34.078)">
    <path id="Tracé_3311" data-name="Tracé 3311" d="M133.593,141.255q5.72-3.639,11.452-7.266c1.726-1.094,3.475-2.178,5.156-3.351A68.142,68.142,0,0,0,176.039,96.53a70.759,70.759,0,0,0,3.689-23.2V58.316a4.625,4.625,0,0,0-3.317-4.355,42.058,42.058,0,0,1-4.062-1.4c.361.147.722.3,1.083.451a30.406,30.406,0,0,1-6.6-3.847l.914.711a30.186,30.186,0,0,1-5.371-5.359l.711.914a30.526,30.526,0,0,1-3.859-6.612c.147.361.3.722.451,1.083-.338-.812-.654-1.647-.925-2.482A4.636,4.636,0,0,0,154.4,34.1H113.9c-1.862,0-3.735-.056-5.6,0h-.079a4.625,4.625,0,0,0-4.355,3.317c-.271.846-.575,1.67-.925,2.482.147-.361.3-.722.451-1.083a30.8,30.8,0,0,1-3.859,6.612l.711-.914a30.184,30.184,0,0,1-5.371,5.359l.914-.711a30.676,30.676,0,0,1-6.6,3.847c.361-.147.722-.3,1.083-.451-1.331.553-2.685.982-4.062,1.4A4.625,4.625,0,0,0,82.9,58.316V71.922c0,2.392,0,4.784.169,7.176a70.032,70.032,0,0,0,2.55,14.4,69.305,69.305,0,0,0,13.63,25.251,72.9,72.9,0,0,0,16.992,14.4l12.49,7.92c.1.068.214.135.316.2a4.545,4.545,0,0,0,6.172-1.625,4.61,4.61,0,0,0-1.625-6.172q-3.046-1.929-6.081-3.859c-2.595-1.647-5.179-3.283-7.774-4.931q-2.725-1.726-5.3-3.689l.914.711a64.211,64.211,0,0,1-11.407-11.407l.711.914a64.877,64.877,0,0,1-8.315-14.227c.147.361.3.722.451,1.083a64.044,64.044,0,0,1-4.457-16.326c.056.395.113.8.158,1.2a83.121,83.121,0,0,1-.564-10.978v-13.6c-1.106,1.455-2.211,2.9-3.317,4.355A36.611,36.611,0,0,0,99.576,57.6a34.114,34.114,0,0,0,13.009-17.736c-1.455,1.106-2.9,2.211-4.355,3.317h40.494c1.862,0,3.735.045,5.6,0h.079c-1.455-1.106-2.9-2.211-4.355-3.317a34.319,34.319,0,0,0,17.7,20.489,45.593,45.593,0,0,0,6.273,2.358c-1.106-1.455-2.211-2.9-3.317-4.355v16a66.065,66.065,0,0,1-.564,8.575c.056-.395.113-.8.158-1.2a65.112,65.112,0,0,1-4.457,16.326c.147-.361.3-.722.451-1.083a64.876,64.876,0,0,1-8.315,14.227l.711-.914A64.213,64.213,0,0,1,147.279,121.7l.914-.711c-2.527,1.952-5.213,3.633-7.9,5.348q-4.468,2.843-8.936,5.675c-.767.485-1.546.982-2.313,1.467a4.732,4.732,0,0,0-2.076,2.7,4.664,4.664,0,0,0,.451,3.475A4.58,4.58,0,0,0,133.593,141.255Z" transform="translate(0)" fill="#00b1b7"/>
    <path id="Tracé_3312" data-name="Tracé 3312" d="M298.05,346.269l11.587,11.587,1.647,1.647a4.585,4.585,0,0,0,6.386,0l8.947-8.947,14.16-14.16,3.261-3.261a4.516,4.516,0,0,0-6.386-6.386L328.7,335.7l-14.16,14.16-3.261,3.261h6.386L306.083,341.53l-1.647-1.647a4.516,4.516,0,0,0-6.386,6.386Z" transform="translate(-189.73 -258.505)" fill="#00b1b7"/>
  </g>
</svg>
