<svg xmlns="http://www.w3.org/2000/svg" width="109.737" height="451.248" viewBox="0 0 109.737 451.248">
  <g id="Groupe_121" data-name="Groupe 121" transform="translate(-34.523 -2344)">
    <g id="Groupe_79" data-name="Groupe 79" transform="translate(34.523 2344)">
      <g id="Groupe_73" data-name="Groupe 73" transform="translate(0)">
        <path id="Tracé_3318" data-name="Tracé 3318" d="M84.432,329V115.252s-.119-5.06,0-12.937c.286-23.344,2.459-71.345,15.2-84.115,0,0-20.241,9.261-35.112,36.353-7.3,13.3-13.3,30.887-15.014,53.825-.382,7.232-.74,15.873-.74,15.873s-.358,6.8-.358,21.291c0,69.865-1.217,159.089-1.217,159.089s-.024,20.719,0,31.484c1.719,22.915,10.025,40.244,17.329,53.539,14.894,27.115,35.112,36.353,35.112,36.353-12.77-12.77-14.942-60.747-15.2-84.115-.1-7.853,0-12.937,0-12.937Z" transform="translate(-47.186 25.242)" fill="#00b1b7"/>
        <path id="Tracé_3319" data-name="Tracé 3319" d="M131.217,0S82.787,22.079,80.662,98.27s0,163.027,0,163.027S85.078,342.4,65.72,361.762c0,0,50.316-34.133,50.316-76.931V97.028S114.175,17.067,131.217,0Z" transform="translate(-21.48)" fill="#19637b"/>
      </g>
    </g>
  </g>
</svg>
