<svg xmlns="http://www.w3.org/2000/svg" width="92.576" height="125.183" viewBox="0 0 92.576 125.183">
  <path id="Tracé_3365" data-name="Tracé 3365" d="M174.922,18.115a9.057,9.057,0,1,1,9.057-9.057A9.057,9.057,0,0,1,174.922,18.115Zm0-3.623a5.435,5.435,0,1,0-5.435-5.435A5.435,5.435,0,0,0,174.922,14.492Zm28.985,3.623a9.057,9.057,0,1,1,9.057-9.057A9.057,9.057,0,0,1,203.907,18.115Zm0-3.623a5.435,5.435,0,1,0-5.435-5.435A5.435,5.435,0,0,0,203.907,14.492Zm21.738,25.36A9.057,9.057,0,1,1,234.7,30.8,9.057,9.057,0,0,1,225.645,39.852Zm0-3.623a5.435,5.435,0,1,0-5.435-5.435A5.434,5.434,0,0,0,225.645,36.23Zm-72.46,3.623a9.057,9.057,0,1,1,9.057-9.057A9.058,9.058,0,0,1,153.185,39.852Zm0-3.623a5.435,5.435,0,1,0-5.434-5.435A5.435,5.435,0,0,0,153.185,36.23Zm36.231,39.854a16.3,16.3,0,1,1,16.3-16.3A16.3,16.3,0,0,1,189.417,76.084Zm0-3.624a12.68,12.68,0,1,0-12.681-12.68A12.681,12.681,0,0,0,189.417,72.46Zm27.173,4.5V59.773a9.057,9.057,0,0,1,18.115.005V81.507a10.123,10.123,0,0,1-3.571,7.273l-17.822,13.708a6.5,6.5,0,0,0-2.157,4.39v14.493a1.812,1.812,0,0,1-3.623,0V106.878a10.049,10.049,0,0,1,3.571-7.262l17.822-13.708a6.582,6.582,0,0,0,2.157-4.4V59.778a5.434,5.434,0,0,0-10.869-.005V77.895a1.813,1.813,0,0,1-.759,1.474l-12.68,9.057a1.815,1.815,0,0,1-1.053.338H173.114a1.815,1.815,0,0,1-1.053-.338l-12.68-9.057a1.813,1.813,0,0,1-.759-1.474V59.773a5.434,5.434,0,0,0-10.869.005V81.507a6.534,6.534,0,0,0,2.157,4.4l17.822,13.708a10.114,10.114,0,0,1,3.571,7.262v14.493a1.812,1.812,0,0,1-3.623,0V106.878a6.571,6.571,0,0,0-2.157-4.39L147.7,88.78a10.081,10.081,0,0,1-3.571-7.273V59.778a9.057,9.057,0,0,1,18.115-.005V76.963l11.45,8.178h31.447Z" transform="translate(-143.128 1)" fill="#00b1b7" stroke="#00b1b7" stroke-width="2" fill-rule="evenodd"/>
</svg>
