<svg xmlns="http://www.w3.org/2000/svg" xmlns:xlink="http://www.w3.org/1999/xlink" width="110.977" height="209.458" viewBox="0 0 110.977 209.458">
  <defs>
    <linearGradient id="linear-gradient" y1="0.5" x2="1" y2="0.5" gradientUnits="objectBoundingBox">
      <stop offset="0" stop-color="#00b1b7"/>
      <stop offset="0.01" stop-color="#02a8b0"/>
      <stop offset="0.05" stop-color="#0a8f9c"/>
      <stop offset="0.09" stop-color="#117b8d"/>
      <stop offset="0.13" stop-color="#156d83"/>
      <stop offset="0.19" stop-color="#18657c"/>
      <stop offset="0.3" stop-color="#19637b"/>
      <stop offset="0.75" stop-color="#00b1b7"/>
      <stop offset="0.82" stop-color="#00aeb4"/>
      <stop offset="0.87" stop-color="#03a5ad"/>
      <stop offset="0.92" stop-color="#0895a1"/>
      <stop offset="0.96" stop-color="#0f8091"/>
      <stop offset="1" stop-color="#18647b"/>
      <stop offset="1" stop-color="#19637b"/>
    </linearGradient>
  </defs>
  <g id="Logo_AMANE_Final_CMJN" data-name="Logo AMANE Final CMJN" transform="translate(0)">
    <g id="Groupe_1" data-name="Groupe 1" transform="translate(8.623 202)">
      <path id="Tracé_1" data-name="Tracé 1" d="M10.43,252.076V246.33h2.588a1.651,1.651,0,0,1,.752.174,2.011,2.011,0,0,1,.6.446,2.206,2.206,0,0,1,.4.62,1.9,1.9,0,0,1,.141.7,2.073,2.073,0,0,1-.066.513,1.761,1.761,0,0,1-.19.463,1.993,1.993,0,0,1-.3.4,1.942,1.942,0,0,1-.389.3l1.265,2.133h-1.5l-1.1-1.852h-.868v1.852H10.43Zm1.331-3.009h1.215a.5.5,0,0,0,.405-.223.9.9,0,0,0,.174-.57.812.812,0,0,0-.2-.57.573.573,0,0,0-.422-.207H11.761Z" transform="translate(-10.43 -244.676)" fill="#3c75a7"/>
      <path id="Tracé_2" data-name="Tracé 2" d="M22.013,250.564v1.166H17.97v-5.746h3.968v1.166H19.3v1.116h2.265v1.075H19.3v1.224h2.712Zm-1.62-4.961-.827-.223.422-1.05h1.174l-.769,1.281Z" transform="translate(-11.736 -244.33)" fill="#3c75a7"/>
      <path id="Tracé_3" data-name="Tracé 3" d="M28.033,247.993a1.207,1.207,0,0,0-.174-.124,3.57,3.57,0,0,0-.364-.19,3.611,3.611,0,0,0-.48-.174,1.889,1.889,0,0,0-.521-.074c-.471,0-.711.157-.711.479a.377.377,0,0,0,.074.24.618.618,0,0,0,.223.174,1.957,1.957,0,0,0,.38.141c.149.041.331.091.529.149a6.536,6.536,0,0,1,.744.248,2.06,2.06,0,0,1,.562.331,1.278,1.278,0,0,1,.356.479,1.683,1.683,0,0,1,.124.678,1.664,1.664,0,0,1-.182.819,1.612,1.612,0,0,1-.48.546,1.9,1.9,0,0,1-.686.3,3.667,3.667,0,0,1-.8.091,4.32,4.32,0,0,1-.645-.05,5.24,5.24,0,0,1-.645-.141c-.207-.066-.413-.141-.612-.223a3.427,3.427,0,0,1-.546-.3l.587-1.157s.091.074.207.157a3.054,3.054,0,0,0,.438.223,6,6,0,0,0,.587.207,2.538,2.538,0,0,0,.653.091c.471,0,.7-.141.7-.43a.337.337,0,0,0-.107-.265,1.17,1.17,0,0,0-.289-.19,3.316,3.316,0,0,0-.438-.157c-.174-.05-.356-.1-.554-.165a4.262,4.262,0,0,1-.686-.265,1.755,1.755,0,0,1-.48-.331,1.142,1.142,0,0,1-.281-.43,1.487,1.487,0,0,1-.091-.562,1.762,1.762,0,0,1,.174-.8,1.7,1.7,0,0,1,.463-.587,2.14,2.14,0,0,1,.678-.364,2.635,2.635,0,0,1,.81-.124,2.769,2.769,0,0,1,.587.058,4.324,4.324,0,0,1,.562.149,2.977,2.977,0,0,1,.5.207q.236.112.422.223l-.587,1.1Z" transform="translate(-12.812 -244.661)" fill="#3c75a7"/>
      <path id="Tracé_4" data-name="Tracé 4" d="M31.67,252.076V246.33H33v5.746Z" transform="translate(-14.11 -244.676)" fill="#3c75a7"/>
      <path id="Tracé_5" data-name="Tracé 5" d="M35.59,252.076V246.33h2.141a3.236,3.236,0,0,1,1.248.223,2.562,2.562,0,0,1,.893.612,2.594,2.594,0,0,1,.546.909,3.293,3.293,0,0,1,.182,1.116,3.139,3.139,0,0,1-.207,1.182,2.8,2.8,0,0,1-.579.909,2.655,2.655,0,0,1-.909.587,3.157,3.157,0,0,1-1.174.207H35.59Zm3.663-2.885a2.272,2.272,0,0,0-.1-.694,1.48,1.48,0,0,0-.3-.537,1.351,1.351,0,0,0-.48-.347,1.589,1.589,0,0,0-.637-.124h-.818V250.9h.818a1.476,1.476,0,0,0,.645-.132,1.29,1.29,0,0,0,.471-.364,1.638,1.638,0,0,0,.289-.546,2.256,2.256,0,0,0,.1-.686Z" transform="translate(-14.789 -244.676)" fill="#3c75a7"/>
      <path id="Tracé_6" data-name="Tracé 6" d="M47.623,250.91v1.166H43.58V246.33h3.968V247.5H44.911v1.116h2.265v1.075H44.911v1.224Z" transform="translate(-16.173 -244.676)" fill="#3c75a7"/>
      <path id="Tracé_7" data-name="Tracé 7" d="M51.751,248.785v3.29H50.42V246.33h1.033l2.679,3.373V246.33h1.331v5.746H54.4Z" transform="translate(-17.358 -244.676)" fill="#3c75a7"/>
      <path id="Tracé_8" data-name="Tracé 8" d="M58.44,249.142a3.04,3.04,0,0,1,.19-1.033,2.946,2.946,0,0,1,.57-.918,2.814,2.814,0,0,1,.909-.653,2.85,2.85,0,0,1,1.215-.248,2.746,2.746,0,0,1,1.405.347,2.224,2.224,0,0,1,.885.909l-1.017.711a1.376,1.376,0,0,0-.248-.38,1.167,1.167,0,0,0-.331-.24,1.611,1.611,0,0,0-.364-.132,1.858,1.858,0,0,0-.364-.033,1.285,1.285,0,0,0-.661.157,1.566,1.566,0,0,0-.471.4,1.652,1.652,0,0,0-.273.554,2.3,2.3,0,0,0-.091.62,1.933,1.933,0,0,0,.107.653,1.769,1.769,0,0,0,.306.562,1.462,1.462,0,0,0,.48.389,1.431,1.431,0,0,0,.628.141,2.047,2.047,0,0,0,.372-.041,1.146,1.146,0,0,0,.364-.141,1.258,1.258,0,0,0,.322-.24,1.054,1.054,0,0,0,.231-.372l1.083.637a1.71,1.71,0,0,1-.389.57,2.529,2.529,0,0,1-.587.422,2.979,2.979,0,0,1-.7.256,3.184,3.184,0,0,1-.728.091,2.512,2.512,0,0,1-1.141-.256,3.042,3.042,0,0,1-.9-.678,3.15,3.15,0,0,1-.587-.959,2.928,2.928,0,0,1-.207-1.083Z" transform="translate(-18.748 -244.67)" fill="#3c75a7"/>
      <path id="Tracé_9" data-name="Tracé 9" d="M70.593,250.91v1.166H66.55V246.33h3.968V247.5H67.881v1.116h2.265v1.075H67.881v1.224Z" transform="translate(-20.153 -244.676)" fill="#3c75a7"/>
      <path id="Tracé_10" data-name="Tracé 10" d="M76.623,247.993a1.208,1.208,0,0,0-.174-.124,3.572,3.572,0,0,0-.364-.19,3.61,3.61,0,0,0-.48-.174,1.888,1.888,0,0,0-.521-.074c-.471,0-.711.157-.711.479a.377.377,0,0,0,.074.24.618.618,0,0,0,.223.174,1.957,1.957,0,0,0,.38.141c.149.041.331.091.529.149a6.537,6.537,0,0,1,.744.248,2.06,2.06,0,0,1,.562.331,1.278,1.278,0,0,1,.355.479,1.683,1.683,0,0,1,.124.678,1.664,1.664,0,0,1-.182.819,1.612,1.612,0,0,1-.48.546,1.9,1.9,0,0,1-.686.3,3.667,3.667,0,0,1-.8.091,4.32,4.32,0,0,1-.645-.05,5.241,5.241,0,0,1-.645-.141c-.207-.066-.413-.141-.612-.223a3.427,3.427,0,0,1-.546-.3l.587-1.157s.091.074.207.157a3.054,3.054,0,0,0,.438.223,6,6,0,0,0,.587.207,2.539,2.539,0,0,0,.653.091c.471,0,.7-.141.7-.43a.337.337,0,0,0-.107-.265,1.17,1.17,0,0,0-.289-.19,3.316,3.316,0,0,0-.438-.157c-.174-.05-.356-.1-.554-.165a4.263,4.263,0,0,1-.686-.265,1.755,1.755,0,0,1-.48-.331,1.142,1.142,0,0,1-.281-.43,1.487,1.487,0,0,1-.091-.562,1.762,1.762,0,0,1,.174-.8,1.7,1.7,0,0,1,.463-.587,2.139,2.139,0,0,1,.678-.364,2.635,2.635,0,0,1,.81-.124,2.769,2.769,0,0,1,.587.058,4.323,4.323,0,0,1,.562.149,2.978,2.978,0,0,1,.5.207q.236.112.422.223l-.587,1.1Z" transform="translate(-21.23 -244.661)" fill="#3c75a7"/>
      <path id="Tracé_11" data-name="Tracé 11" d="M84.97,246.32h1.2l2.1,5.746H86.9l-.446-1.29H84.672l-.438,1.29H82.87l2.1-5.746Zm1.273,3.547-.67-2.034-.686,2.034h1.364Z" transform="translate(-22.98 -244.675)" fill="#3c75a7"/>
      <path id="Tracé_12" data-name="Tracé 12" d="M95.589,252.076v-3.439l-1.248,2.505h-.711l-1.248-2.505v3.439H91.05V246.33h1.439l1.488,3,1.5-3H96.9v5.746H95.572Z" transform="translate(-24.397 -244.676)" fill="#3c75a7"/>
      <path id="Tracé_13" data-name="Tracé 13" d="M101.91,246.32h1.2l2.1,5.746h-1.364l-.446-1.29h-1.786l-.438,1.29H99.81Zm1.273,3.547-.67-2.034-.686,2.034h1.364Z" transform="translate(-25.915 -244.675)" fill="#3c75a7"/>
      <path id="Tracé_14" data-name="Tracé 14" d="M109.321,248.785v3.29H107.99V246.33h1.033L111.7,249.7V246.33h1.331v5.746h-1.067Z" transform="translate(-27.332 -244.676)" fill="#3c75a7"/>
      <path id="Tracé_15" data-name="Tracé 15" d="M120.453,250.91v1.166H116.41V246.33h3.968V247.5h-2.637v1.116h2.265v1.075h-2.265v1.224Z" transform="translate(-28.791 -244.676)" fill="#3c75a7"/>
    </g>
    <path id="Tracé_16" data-name="Tracé 16" d="M102.3,228.492h-1.215v9.276H102.3Zm-3.6,7.97a1.138,1.138,0,0,1-1.62,0,1.229,1.229,0,0,1,0-1.695,1.093,1.093,0,0,1,.8-.339,1.131,1.131,0,0,1,.818.339,1.229,1.229,0,0,1,0,1.695m-2.331-2.356a2.075,2.075,0,0,0-.612,1.529,2.108,2.108,0,0,0,.612,1.53,2.04,2.04,0,0,0,1.5.62,2.1,2.1,0,0,0,2.133-2.15,2.108,2.108,0,0,0-.612-1.529,2.064,2.064,0,0,0-1.521-.62,2.014,2.014,0,0,0-1.5.62m-2.265,2.439H88.459v-6.821h5.647v-1.232H87.227v9.276h6.879v-1.232Zm-9.276-.083a1.138,1.138,0,0,1-1.62,0,1.229,1.229,0,0,1,0-1.695,1.094,1.094,0,0,1,.8-.339,1.131,1.131,0,0,1,.818.339,1.229,1.229,0,0,1,0,1.695M82.5,234.106a2.075,2.075,0,0,0-.612,1.529,2.108,2.108,0,0,0,.612,1.53,2.04,2.04,0,0,0,1.5.62,2.1,2.1,0,0,0,2.133-2.15,2.108,2.108,0,0,0-.612-1.529,2.064,2.064,0,0,0-1.521-.62,2.014,2.014,0,0,0-1.5.62m-2.207-5.614h-1.24a2.61,2.61,0,0,1,.017.289v.273c.017.794-.661,2.331-2.042,4.63v-5.192h-1.24v9.276h1.24a11.493,11.493,0,0,1,.1-1.6,4.583,4.583,0,0,1,.438-1.662l1.5-2.365v5.63H80.3v-9.276Zm-13.319,0H65.757v9.276h1.215Zm-11.335,4.316-2.257-1.976,3.869-1.48V228.12l-6.192,2.356,2.811,2.447L50.949,235.4l6.292,2.538v-1.24l-4.076-1.662,2.464-2.224Zm-6.292,3.729H43.7v-6.821h5.647v-1.232H42.467v9.276h6.879v-1.232Zm-8.573,0H35.125v-6.821h5.647v-1.232H33.893v9.276h6.879v-1.232ZM25.213,228.5l3.018,4.622-3.018,4.638h1.323l2.348-3.629,2.356,3.629h1.339l-3.018-4.655,2.993-4.6H25.2Zm5.39.967L28.9,232.1l-1.711-2.629h3.406Zm-8.177,3.34-2.257-1.976,3.869-1.48V228.12l-6.192,2.356,2.811,2.447L17.739,235.4l6.292,2.538v-1.24l-4.076-1.662,2.464-2.224Zm-6.126-.289H14.109v-4.035H12.877v4.035H10.67v1.215h2.207v4.035h1.232v-4.035H16.3Z" transform="translate(-1.849 -39.521)" fill="#00b1b7"/>
    <g id="Groupe_2" data-name="Groupe 2" transform="translate(6.586 159.299)">
      <path id="Tracé_17" data-name="Tracé 17" d="M19.7,208.75c.612,0,1.058.678,1.058,1.364a1.073,1.073,0,0,1-1.058,1.091,1.045,1.045,0,0,1-1.025-1.091C18.67,209.436,19.075,208.75,19.7,208.75Z" transform="translate(-9.821 -195.464)" fill="#3c75a7"/>
      <path id="Tracé_18" data-name="Tracé 18" d="M28.412,206.659a11.314,11.314,0,0,0-.446-3.58,2.071,2.071,0,0,1-1.835-1.91,1.462,1.462,0,0,1,1.529-1.529c1.463,0,2.381,1.331,2.381,4.051,0,1.43-.132,2.96-.132,5.142,0,2.348,1.124,3.712,3.2,3.712.446,0,.852.446.852,1.124s-.405,1.124-.852,1.124a3.375,3.375,0,0,1-3.067-1.4l-.033-.033c.033.852.132,2.282.273,3.166a2.1,2.1,0,0,1-1.257.339,84.732,84.732,0,0,1-.612-10.219Z" transform="translate(-11.113 -193.886)" fill="#3c75a7"/>
      <path id="Tracé_19" data-name="Tracé 19" d="M34.4,216.644c-.48,0-.818-.446-.818-1.124s.339-1.124.818-1.124c1.157,0,1.844-.546,2.861-2.15.951-1.5,1.736-1.976,2.827-1.976a3.153,3.153,0,0,1,2.728,3.373c0,2.009-1.191,3.505-2.861,3.505a2.952,2.952,0,0,1-2.621-1.943,3.437,3.437,0,0,1-2.927,1.43Zm5.481-1.529a1.255,1.255,0,0,0,1.364-1.3,1.357,1.357,0,0,0-1.331-1.5c-.719,0-1.3.612-1.835,1.67A2.111,2.111,0,0,0,39.88,215.115Z" transform="translate(-12.404 -195.727)" fill="#3c75a7"/>
      <path id="Tracé_20" data-name="Tracé 20" d="M47.088,194.176c-.24,0-.372-.132-.612-.132a1.155,1.155,0,0,0-.951,1.058c0,.273.174.48.546.48a3.246,3.246,0,0,1,1.43-.546.445.445,0,0,1,.513.48c0,.306-.24.579-1.191.852-.339.579-.372,1.091-.645,1.091-.24,0-1.025-.306-1.025-.48a1.768,1.768,0,0,1,.372-.752c-.579-.24-1.025-.546-1.025-1.058a2.765,2.765,0,0,1,2.315-2.489c.612,0,.984.306.984.818a.65.65,0,0,1-.719.678Zm-2.009,5.787a1.462,1.462,0,0,1,1.529-1.53c1.463,0,2.381,1.331,2.381,4.051,0,1.43-.132,2.96-.132,5.142a17,17,0,0,0,1.091,5.209c0,.306-.405.752-.612.752s-.513-.273-.885-1.157c-.818-1.877-.951-3.472-1.091-6.986a12.454,12.454,0,0,0-.446-3.58,2.079,2.079,0,0,1-1.844-1.91Z" transform="translate(-14.296 -192.68)" fill="#3c75a7"/>
      <path id="Tracé_21" data-name="Tracé 21" d="M62.57,207.88a6,6,0,0,0-2.621,4.6c0,2.282,1.571,3.439,3.646,3.439,1.877,0,3.067-.678,4.837-2.488,1.5-1.5,2.249-1.8,3.274-1.8a2.251,2.251,0,0,1,2.183,2.414,3.516,3.516,0,0,1-.24,1.364,2.45,2.45,0,0,1-1.331.339c.1-1.058-.546-1.736-1.224-1.736s-1.157.339-2.455,1.769a6.878,6.878,0,0,1-5.556,2.588c-3.233,0-5.142-1.976-5.142-4.737a6.564,6.564,0,0,1,2.315-4.9,5.764,5.764,0,0,1,1.8-1.224.777.777,0,0,1,.513.372ZM67,207.607c.612,0,1.058.678,1.058,1.364A1.073,1.073,0,0,1,67,210.063a1.045,1.045,0,0,1-1.025-1.091C65.976,208.294,66.381,207.607,67,207.607Zm3.166,0c.612,0,1.058.678,1.058,1.364a1.073,1.073,0,0,1-1.058,1.091,1.045,1.045,0,0,1-1.025-1.091C69.143,208.294,69.548,207.607,70.168,207.607Z" transform="translate(-16.624 -195.248)" fill="#3c75a7"/>
      <path id="Tracé_22" data-name="Tracé 22" d="M79.912,206.659a11.314,11.314,0,0,0-.446-3.58,2.071,2.071,0,0,1-1.835-1.91,1.462,1.462,0,0,1,1.529-1.529c1.463,0,2.381,1.331,2.381,4.051,0,1.43-.132,2.96-.132,5.142,0,2.348,1.124,3.712,3.2,3.712.446,0,.852.446.852,1.124s-.405,1.124-.852,1.124a3.375,3.375,0,0,1-3.067-1.4l-.033-.033c.033.852.132,2.282.273,3.166a2.1,2.1,0,0,1-1.257.339,84.73,84.73,0,0,1-.612-10.219Z" transform="translate(-20.035 -193.886)" fill="#3c75a7"/>
      <path id="Tracé_23" data-name="Tracé 23" d="M85.9,216.644c-.48,0-.818-.446-.818-1.124s.339-1.124.818-1.124c1.157,0,1.844-.546,2.861-2.15.951-1.5,1.736-1.976,2.827-1.976a3.153,3.153,0,0,1,2.728,3.373c0,2.009-1.191,3.505-2.861,3.505a2.952,2.952,0,0,1-2.621-1.943,3.448,3.448,0,0,1-2.927,1.43Zm5.481-1.529a1.255,1.255,0,0,0,1.364-1.3,1.357,1.357,0,0,0-1.331-1.5c-.719,0-1.3.612-1.844,1.67a2.111,2.111,0,0,0,1.8,1.124Z" transform="translate(-21.326 -195.727)" fill="#3c75a7"/>
      <path id="Tracé_24" data-name="Tracé 24" d="M99.392,206.659a11.313,11.313,0,0,0-.446-3.58,2.071,2.071,0,0,1-1.835-1.91,1.462,1.462,0,0,1,1.53-1.529c1.463,0,2.381,1.331,2.381,4.051,0,1.43-.132,2.96-.132,5.142,0,2.348,1.124,3.712,3.2,3.712.446,0,.852.446.852,1.124s-.405,1.124-.852,1.124a3.375,3.375,0,0,1-3.067-1.4l-.033-.033c.033.852.132,2.282.273,3.166a2.1,2.1,0,0,1-1.257.339,84.732,84.732,0,0,1-.612-10.219Z" transform="translate(-23.41 -193.886)" fill="#3c75a7"/>
      <path id="Tracé_25" data-name="Tracé 25" d="M110.929,210.782a4.1,4.1,0,0,1-2.522.918,2.709,2.709,0,0,1-2.489-2.687c0-1.5,1.571-3.646,2.827-3.646,1.637,0,3.547,2.687,3.547,5.175,0,2.728-2.042,4.63-6.3,4.63h-.612c-.513,0-.852-.446-.852-1.124,0-.752.339-1.124.852-1.124h1.67c2.282,0,3.712-.678,4.018-2.075l-.132-.066Zm-3.853-8.962c.612,0,1.058.678,1.058,1.364a1.073,1.073,0,0,1-1.058,1.091,1.045,1.045,0,0,1-1.025-1.091C106.051,202.506,106.456,201.82,107.076,201.82Zm1.5,5.994a1.263,1.263,0,0,0-1.257,1.058c0,.645.513,1.025,1.43,1.025a2.635,2.635,0,0,0,1.8-.752A2.552,2.552,0,0,0,108.573,207.814Zm1.67-5.994c.612,0,1.058.678,1.058,1.364a1.073,1.073,0,0,1-1.058,1.091,1.045,1.045,0,0,1-1.025-1.091C109.218,202.506,109.623,201.82,110.243,201.82Z" transform="translate(-24.696 -194.263)" fill="#3c75a7"/>
      <path id="Tracé_26" data-name="Tracé 26" d="M114.948,201.169a1.462,1.462,0,0,1,1.529-1.529c1.463,0,2.381,1.331,2.381,4.051,0,1.43-.132,2.96-.132,5.142a17,17,0,0,0,1.091,5.209c0,.306-.405.752-.612.752s-.513-.273-.885-1.157c-.819-1.877-.951-3.472-1.091-6.986a12.452,12.452,0,0,0-.446-3.58,2.079,2.079,0,0,1-1.844-1.91Zm5.481,16.18c-.24,0-.372-.132-.612-.132a1.155,1.155,0,0,0-.951,1.058c0,.273.174.48.546.48a3.246,3.246,0,0,1,1.43-.546.445.445,0,0,1,.513.479c0,.306-.24.579-1.191.852-.339.579-.372,1.091-.645,1.091-.24,0-1.025-.306-1.025-.48a1.769,1.769,0,0,1,.372-.752c-.579-.24-1.025-.546-1.025-1.058a2.765,2.765,0,0,1,2.315-2.489c.612,0,.984.306.984.818a.65.65,0,0,1-.719.678Z" transform="translate(-26.499 -193.886)" fill="#3c75a7"/>
      <path id="Tracé_27" data-name="Tracé 27" d="M10.2,214.829c-1.033,1.728-.19,4.373,2.53,5.994,3.629,2.166,7.474.967,9.2-1.926a2.514,2.514,0,0,0,.471-1.786c-1.5-1.215-2.108-2.646-1.463-3.729a1.323,1.323,0,0,1,1.918-.48c1.405.835,1.769,3.753.058,6.622-2.67,4.473-7.4,5.82-11.7,3.249-3.274-1.959-3.993-5.2-2.53-7.656.661-1.108,1.389-1.472,1.744-1.257a.556.556,0,0,1,.265.356,2.49,2.49,0,0,0-.488.62Z" transform="translate(-7.966 -196.144)" fill="#3c75a7"/>
    </g>
    <path id="Tracé_28" data-name="Tracé 28" d="M60.087,125.851V51.816s-.041-1.753,0-4.481c.1-8.086.852-24.712,5.266-29.135,0,0-7.011,3.208-12.162,12.591a45.264,45.264,0,0,0-5.2,18.643c-.132,2.505-.256,5.5-.256,5.5s-.124,2.356-.124,7.375c0,24.2-.422,55.1-.422,55.1s-.008,7.176,0,10.9a44.291,44.291,0,0,0,6,18.544c5.159,9.392,12.162,12.591,12.162,12.591-4.423-4.423-5.175-21.041-5.266-29.135-.033-2.72,0-4.481,0-4.481Z" transform="translate(-8.175 -3.153)" fill="#00b1b7"/>
    <path id="Tracé_29" data-name="Tracé 29" d="M32.7,112.09c-.794.529-8.549,7.49-8.549,7.49l8.019,8.64,7.929-7.664L32.7,112.1Z" transform="translate(-4.184 -19.419)" fill="#19637b"/>
    <path id="Tracé_30" data-name="Tracé 30" d="M109.611,118.831a30.081,30.081,0,0,0-57.848,1.405.263.263,0,0,1-.025.074c-.041.24-.074.463-.107.678a2.258,2.258,0,0,0-.116.422A23.032,23.032,0,1,1,21.446,95.55c-.1.025-.19.05-.289.083A30.075,30.075,0,1,0,59.2,131.869c.19-.719.339-1.447.471-2.183a23.026,23.026,0,1,1,29.854,26.878c.1-.025.19-.05.289-.083A30.068,30.068,0,0,0,109.611,118.831Z" transform="translate(0 -16.554)" fill="url(#linear-gradient)"/>
    <path id="Tracé_31" data-name="Tracé 31" d="M88.406,0S71.631,7.647,70.9,34.037s0,56.467,0,56.467,1.529,28.093-5.175,34.8c0,0,17.428-11.823,17.428-26.646V33.607S82.5,5.911,88.406,0Z" transform="translate(-11.386)" fill="#19637b"/>
  </g>
</svg>
